<?xml version="1.0" encoding="UTF-8" standalone="no"?>
<svg version="1.1" xmlns="http://www.w3.org/2000/svg" class="ag-canvas vc-chart vc-rank-chart" width="843" height="600" viewBox="-0.5 -0.5 843 600" style="width: 100%; height: 600px; font-family: &quot;Helvetica Neue&quot;, Arial, Helvetica, sans-serif; font-size: 14px; background-color: rgb(255, 255, 255);"><image class="absol-attachhook" style="display:none" href=""></image><g class="vc-body" transform="translate(5,32)"><g class="vc-axis-ctn" transform="translate(80.296875,0)"><g class="vc-oxy-space" transform="translate(0,533)"><g class="vc-ox-label-ctn" transform="translate(0,20)"><text class="vc-ox-label" x="85" style="text-anchor: middle;">Giám đốc</text><text class="vc-ox-label" x="239.34375" style="text-anchor: middle;">Trưởng phòng tài chính</text><text class="vc-ox-label" x="415.4765625" style="text-anchor: middle;">Trưởng phòng nhân sự</text><text class="vc-ox-label" x="588.109375" style="text-anchor: middle;">Trưởng phòng kế toán</text></g><g class="vc-rank-list-ctn"><g transform="translate(39,0)"><rect x="0" y="-469.94" class="vc-rank-position-list-rect" width="92" height="469.94" style="stroke: none; fill: rgba(0, 247, 255, 0.137);"></rect><g transform="translate(10, -39)"><circle cx="9" cy="0" r="9" class="rank-chart-plot" style="fill: transparent; stroke: rgb(0, 0, 0); stroke-width: 1px;"></circle><text x="9" y="5" text-anchor="middle" class="rank-chart-plot-text" style="cursor: default;">1</text></g><g transform="translate(10, -326.4)"><circle cx="9" cy="0" r="9" class="rank-chart-plot" style="fill: rgb(201, 241, 253); stroke: rgb(0, 0, 0); stroke-width: 1px;"></circle><text x="9" y="5" text-anchor="middle" class="rank-chart-plot-text" style="cursor: default;">2</text></g><g transform="translate(10, -355.14)"><circle cx="9" cy="0" r="9" class="rank-chart-plot" style="fill: rgb(212, 227, 252); stroke: rgb(0, 0, 0); stroke-width: 1px;"></circle><text x="9" y="5" text-anchor="middle" class="rank-chart-plot-text" style="cursor: default;">3</text></g><g transform="translate(10, -378.132)"><circle cx="9" cy="0" r="9" class="rank-chart-plot" style="fill: rgb(218, 202, 251); stroke: rgb(0, 0, 0); stroke-width: 1px;"></circle><text x="9" y="5" text-anchor="middle" class="rank-chart-plot-text" style="cursor: default;">4</text></g><g transform="translate(10, -403.04)"><circle cx="9" cy="0" r="9" class="rank-chart-plot" style="fill: rgb(242, 201, 251); stroke: rgb(0, 0, 0); stroke-width: 1px;"></circle><text x="9" y="5" text-anchor="middle" class="rank-chart-plot-text" style="cursor: default;">5</text></g><g transform="translate(64, -439.444)"><circle cx="9" cy="0" r="9" class="rank-chart-plot" style="fill: rgb(255, 218, 216); stroke: rgb(0, 0, 0); stroke-width: 1px;"></circle><text x="9" y="5" text-anchor="middle" class="rank-chart-plot-text" style="cursor: default;">6</text></g><g transform="translate(37, -441.36)"><circle cx="9" cy="0" r="9" class="rank-chart-plot" style="fill: rgb(255, 236, 215); stroke: rgb(0, 0, 0); stroke-width: 1px;"></circle><text x="9" y="5" text-anchor="middle" class="rank-chart-plot-text" style="cursor: default;">7</text></g><g transform="translate(10, -450.94)"><circle cx="9" cy="0" r="9" class="rank-chart-plot" style="fill: rgb(254, 252, 224); stroke: rgb(0, 0, 0); stroke-width: 1px;"></circle><text x="9" y="5" text-anchor="middle" class="rank-chart-plot-text" style="cursor: default;">8</text></g></g><g transform="translate(193.34375,0)"><rect x="0" y="-473.772" class="vc-rank-position-list-rect" width="92" height="473.772" style="stroke: none; fill: rgba(0, 247, 255, 0.137);"></rect><g transform="translate(10, -326.4)"><circle cx="9" cy="0" r="9" class="rank-chart-plot" style="fill: transparent; stroke: rgb(0, 0, 0); stroke-width: 1px;"></circle><text x="9" y="5" text-anchor="middle" class="rank-chart-plot-text" style="cursor: default;">1</text></g><g transform="translate(10, -364.72)"><circle cx="9" cy="0" r="9" class="rank-chart-plot" style="fill: rgb(201, 241, 253); stroke: rgb(0, 0, 0); stroke-width: 1px;"></circle><text x="9" y="5" text-anchor="middle" class="rank-chart-plot-text" style="cursor: default;">2</text></g><g transform="translate(37, -374.3)"><circle cx="9" cy="0" r="9" class="rank-chart-plot" style="fill: rgb(212, 227, 252); stroke: rgb(0, 0, 0); stroke-width: 1px;"></circle><text x="9" y="5" text-anchor="middle" class="rank-chart-plot-text" style="cursor: default;">3</text></g><g transform="translate(10, -393.46)"><circle cx="9" cy="0" r="9" class="rank-chart-plot" style="fill: rgb(218, 202, 251); stroke: rgb(0, 0, 0); stroke-width: 1px;"></circle><text x="9" y="5" text-anchor="middle" class="rank-chart-plot-text" style="cursor: default;">4</text></g><g transform="translate(37, -416.452)"><circle cx="9" cy="0" r="9" class="rank-chart-plot" style="fill: rgb(242, 201, 251); stroke: rgb(0, 0, 0); stroke-width: 1px;"></circle><text x="9" y="5" text-anchor="middle" class="rank-chart-plot-text" style="cursor: default;">5</text></g><g transform="translate(10, -422.2)"><circle cx="9" cy="0" r="9" class="rank-chart-plot" style="fill: rgb(255, 218, 216); stroke: rgb(0, 0, 0); stroke-width: 1px;"></circle><text x="9" y="5" text-anchor="middle" class="rank-chart-plot-text" style="cursor: default;">6</text></g><g transform="translate(64, -441.36)"><circle cx="9" cy="0" r="9" class="rank-chart-plot" style="fill: rgb(255, 236, 215); stroke: rgb(0, 0, 0); stroke-width: 1px;"></circle><text x="9" y="5" text-anchor="middle" class="rank-chart-plot-text" style="cursor: default;">7</text></g><g transform="translate(37, -450.94)"><circle cx="9" cy="0" r="9" class="rank-chart-plot" style="fill: rgb(254, 252, 224); stroke: rgb(0, 0, 0); stroke-width: 1px;"></circle><text x="9" y="5" text-anchor="middle" class="rank-chart-plot-text" style="cursor: default;">8</text></g><g transform="translate(10, -454.772)"><circle cx="9" cy="0" r="9" class="rank-chart-plot" style="fill: rgb(223, 237, 214); stroke: rgb(0, 0, 0); stroke-width: 1px;"></circle><text x="9" y="5" text-anchor="middle" class="rank-chart-plot-text" style="cursor: default;">9</text></g></g><g transform="translate(382.9765625,0)"><rect x="0" y="-473.772" class="vc-rank-position-list-rect" width="65" height="473.772" style="stroke: none; fill: rgba(0, 247, 255, 0.137);"></rect><g transform="translate(37, -288.08000000000004)"><circle cx="9" cy="0" r="9" class="rank-chart-plot" style="fill: transparent; stroke: rgb(0, 0, 0); stroke-width: 1px;"></circle><text x="9" y="5" text-anchor="middle" class="rank-chart-plot-text" style="cursor: default;">1</text></g><g transform="translate(10, -307.24)"><circle cx="9" cy="0" r="9" class="rank-chart-plot" style="fill: rgb(201, 241, 253); stroke: rgb(0, 0, 0); stroke-width: 1px;"></circle><text x="9" y="5" text-anchor="middle" class="rank-chart-plot-text" style="cursor: default;">2</text></g><g transform="translate(37, -335.98)"><circle cx="9" cy="0" r="9" class="rank-chart-plot" style="fill: rgb(212, 227, 252); stroke: rgb(0, 0, 0); stroke-width: 1px;"></circle><text x="9" y="5" text-anchor="middle" class="rank-chart-plot-text" style="cursor: default;">3</text></g><g transform="translate(10, -355.14)"><circle cx="9" cy="0" r="9" class="rank-chart-plot" style="fill: rgb(218, 202, 251); stroke: rgb(0, 0, 0); stroke-width: 1px;"></circle><text x="9" y="5" text-anchor="middle" class="rank-chart-plot-text" style="cursor: default;">4</text></g><g transform="translate(10, -378.132)"><circle cx="9" cy="0" r="9" class="rank-chart-plot" style="fill: rgb(242, 201, 251); stroke: rgb(0, 0, 0); stroke-width: 1px;"></circle><text x="9" y="5" text-anchor="middle" class="rank-chart-plot-text" style="cursor: default;">5</text></g><g transform="translate(37, -383.88)"><circle cx="9" cy="0" r="9" class="rank-chart-plot" style="fill: rgb(255, 218, 216); stroke: rgb(0, 0, 0); stroke-width: 1px;"></circle><text x="9" y="5" text-anchor="middle" class="rank-chart-plot-text" style="cursor: default;">6</text></g><g transform="translate(10, -403.04)"><circle cx="9" cy="0" r="9" class="rank-chart-plot" style="fill: rgb(255, 236, 215); stroke: rgb(0, 0, 0); stroke-width: 1px;"></circle><text x="9" y="5" text-anchor="middle" class="rank-chart-plot-text" style="cursor: default;">7</text></g><g transform="translate(10, -431.78)"><circle cx="9" cy="0" r="9" class="rank-chart-plot" style="fill: rgb(254, 252, 224); stroke: rgb(0, 0, 0); stroke-width: 1px;"></circle><text x="9" y="5" text-anchor="middle" class="rank-chart-plot-text" style="cursor: default;">8</text></g><g transform="translate(10, -454.772)"><circle cx="9" cy="0" r="9" class="rank-chart-plot" style="fill: rgb(223, 237, 214); stroke: rgb(0, 0, 0); stroke-width: 1px;"></circle><text x="9" y="5" text-anchor="middle" class="rank-chart-plot-text" style="cursor: default;">9</text></g></g><g transform="translate(555.609375,0)"><rect x="0" y="-508.26" class="vc-rank-position-list-rect" width="65" height="508.26" style="stroke: none; fill: rgba(0, 247, 255, 0.137);"></rect><g transform="translate(37, -249.76)"><circle cx="9" cy="0" r="9" class="rank-chart-plot" style="fill: transparent; stroke: rgb(0, 0, 0); stroke-width: 1px;"></circle><text x="9" y="5" text-anchor="middle" class="rank-chart-plot-text" style="cursor: default;">1</text></g><g transform="translate(10, -253.592)"><circle cx="9" cy="0" r="9" class="rank-chart-plot" style="fill: rgb(201, 241, 253); stroke: rgb(0, 0, 0); stroke-width: 1px;"></circle><text x="9" y="5" text-anchor="middle" class="rank-chart-plot-text" style="cursor: default;">2</text></g><g transform="translate(10, -297.66)"><circle cx="9" cy="0" r="9" class="rank-chart-plot" style="fill: rgb(212, 227, 252); stroke: rgb(0, 0, 0); stroke-width: 1px;"></circle><text x="9" y="5" text-anchor="middle" class="rank-chart-plot-text" style="cursor: default;">3</text></g><g transform="translate(37, -309.156)"><circle cx="9" cy="0" r="9" class="rank-chart-plot" style="fill: rgb(218, 202, 251); stroke: rgb(0, 0, 0); stroke-width: 1px;"></circle><text x="9" y="5" text-anchor="middle" class="rank-chart-plot-text" style="cursor: default;">4</text></g><g transform="translate(10, -326.4)"><circle cx="9" cy="0" r="9" class="rank-chart-plot" style="fill: rgb(242, 201, 251); stroke: rgb(0, 0, 0); stroke-width: 1px;"></circle><text x="9" y="5" text-anchor="middle" class="rank-chart-plot-text" style="cursor: default;">5</text></g><g transform="translate(37, -347.476)"><circle cx="9" cy="0" r="9" class="rank-chart-plot" style="fill: rgb(255, 218, 216); stroke: rgb(0, 0, 0); stroke-width: 1px;"></circle><text x="9" y="5" text-anchor="middle" class="rank-chart-plot-text" style="cursor: default;">6</text></g><g transform="translate(10, -364.72)"><circle cx="9" cy="0" r="9" class="rank-chart-plot" style="fill: rgb(255, 236, 215); stroke: rgb(0, 0, 0); stroke-width: 1px;"></circle><text x="9" y="5" text-anchor="middle" class="rank-chart-plot-text" style="cursor: default;">7</text></g><g transform="translate(10, -393.46)"><circle cx="9" cy="0" r="9" class="rank-chart-plot" style="fill: rgb(254, 252, 224); stroke: rgb(0, 0, 0); stroke-width: 1px;"></circle><text x="9" y="5" text-anchor="middle" class="rank-chart-plot-text" style="cursor: default;">8</text></g><g transform="translate(37, -416.452)"><circle cx="9" cy="0" r="9" class="rank-chart-plot" style="fill: rgb(223, 237, 214); stroke: rgb(0, 0, 0); stroke-width: 1px;"></circle><text x="9" y="5" text-anchor="middle" class="rank-chart-plot-text" style="cursor: default;">9</text></g><g transform="translate(10, -422.2)"><circle cx="9" cy="0" r="9" class="rank-chart-plot" style="fill: rgb(77, 215, 250); stroke: rgb(0, 0, 0); stroke-width: 1px;"></circle><text x="9" y="5" text-anchor="middle" class="rank-chart-plot-text" style="cursor: default;">10</text></g><g transform="translate(37, -441.36)"><circle cx="9" cy="0" r="9" class="rank-chart-plot" style="fill: rgb(117, 169, 249); stroke: rgb(0, 0, 0); stroke-width: 1px;"></circle><text x="9" y="5" text-anchor="middle" class="rank-chart-plot-text" style="cursor: default;">11</text></g><g transform="translate(10, -460.52)"><circle cx="9" cy="0" r="9" class="rank-chart-plot" style="fill: rgb(139, 81, 245); stroke: rgb(0, 0, 0); stroke-width: 1px;"></circle><text x="9" y="5" text-anchor="middle" class="rank-chart-plot-text" style="cursor: default;">12</text></g><g transform="translate(37, -470.1)"><circle cx="9" cy="0" r="9" class="rank-chart-plot" style="fill: rgb(215, 87, 246); stroke: rgb(0, 0, 0); stroke-width: 1px;"></circle><text x="9" y="5" text-anchor="middle" class="rank-chart-plot-text" style="cursor: default;">13</text></g><g transform="translate(10, -489.26)"><circle cx="9" cy="0" r="9" class="rank-chart-plot" style="fill: rgb(255, 138, 132); stroke: rgb(0, 0, 0); stroke-width: 1px;"></circle><text x="9" y="5" text-anchor="middle" class="rank-chart-plot-text" style="cursor: default;">14</text></g></g></g></g><path fill="white" stroke="white" fill-rule="evenodd" d="M-300 -300 H852.703125 V1133H -300zM0 0 H 677.453125 V 833 H 0z" class="vc-white-mask" style="fill: rgb(255, 255, 255);"></path><g class="vchart-axis" transform="translate(0,533)" style="stroke-width: 1px; stroke: rgb(68, 114, 196); fill: rgb(68, 114, 196);"><path d="m-5 0h10l-5-6.8z" id="oy-arrow" transform="translate(0, -528)"></path><path d="m0 -5v10l6.8 -5z" id="ox-arrow" transform="translate(744.703125, 0)"></path><path d="m0 -528v528 h744.703125" fill="none" id="oxy"></path><path class="cv-oy-division" d="M-2 -39.000000000000014H 2 M-2 -135.8H 2 M-2 -232.60000000000002H 2 M-2 -329.40000000000003H 2 M-2 -426.20000000000005H 2 M-2 -523H 2 " style=""></path></g><text y="523" x="752.703125" class="vc-key-name" style="text-anchor: end; font-style: italic;">lương(VND)</text><g class="vc-scroll-arrow" style="display: none;" transform="translate(0,239.5)"><g><g class="vc-scroll-arrow-left" style="display: none;"><rect x="0" y="-19" width="30" height="38" rx="5" ry="5" class="vc-scroll-arrow-hit-box" style="fill: rgba(0, 0, 255, 0.03);"></rect><path d="m 24.02314720639999998 -12.3647199999999984 -12.876350959999998 12.69451116 12.87608932 12.946208839999999 v -3.71554964 l -9.2136526 -9.178069559999999 9.20030896 -9.05562204 z M 17.226420839999999 -12.4798416000000003 v 3.6524944 l -9.17231348 9.054837119999998 9.17231348 9.14771932 v 3.5465302 l -12.796812399999999 -12.77954416 z" class="vc-scroll-arrow-icon" style="fill: rgb(0, 165, 214); user-select: none;"></path></g><g class="vc-scroll-arrow-right" transform="translate(642.453125,0)"><rect x="-30" y="-19" width="30" height="38" rx="5" ry="5" class="vc-scroll-arrow-hit-box" style="fill: rgba(0, 0, 255, 0.03);"></rect><path d="m -22.5000072064 -12.3647199999999984 12.876350959999998 12.69451116 -12.87608932 12.946208839999999 v -3.71554964 l 9.2136526 -9.178069559999999 -9.20030896 -9.05562204 z M -15.70328084 -12.4798416000000003 v 3.6524944 l 9.17231348 9.054837119999998 -9.17231348 9.14771932 v 3.5465302 l 12.796812399999999 -12.77954416 z" class="vc-scroll-arrow-icon" style="fill: rgb(0, 165, 214); user-select: none;"></path></g></g></g><g class="vchart-vscrollbar as-hanger vchart-hidden" transform="translate(0,523)" style="display: none;"><rect x="0" y="0" class="vchart-vscrollbar-bar" height="10" width="676.453125" rx="4" ry="4" style="fill: rgba(0, 0, 0, 0.07);"></rect><rect class="vchart-vscrollbar-button" width="661.9535021005679" height="8" y="1" rx="4" ry="4" x="0" style="fill: rgba(0, 0, 0, 0.1);"></rect></g><text y="14" x="5" class="vc-value-name" style="text-anchor: end; font-style: italic;"></text></g><g class="vc-oy-value-ctn" transform="translate(80.296875,0)"><text class="vc-oy-value" y="500" x="-10" style="text-anchor: end;">0</text><text class="vc-oy-value" y="403.2" x="-10" style="text-anchor: end;">5,000,000</text><text class="vc-oy-value" y="306.4" x="-10" style="text-anchor: end;">10,000,000</text><text class="vc-oy-value" y="209.59999999999997" x="-10" style="text-anchor: end;">15,000,000</text><text class="vc-oy-value" y="112.79999999999997" x="-10" style="text-anchor: end;">20,000,000</text><text class="vc-oy-value" y="15.999999999999972" x="-10" style="text-anchor: end;">25,000,000</text></g></g><text class="vc-title" x="421.5" y="15" style="font-weight: 700; font-size: 15px; text-anchor: middle;">Biểu đồ bậc lương</text><g class="vc-note-ctn" transform="translate(421.5,595)"></g></svg>